<svg width="936" height="498" viewBox="0 0 936 498" fill="none" xmlns="http://www.w3.org/2000/svg">
<path d="M0 391.428C0 352.793 0 314.151 0 275.516C26.2045 263.699 52.7512 252.824 79.7112 242.86C79.7112 256.24 79.7112 269.614 79.7112 282.994C63.1155 286.41 46.5714 290.032 30.0596 293.855C30.0596 301.449 30.0596 309.043 30.0596 316.637C41.8962 315.468 53.7392 314.351 65.5823 313.266V349.874C53.7392 348.996 41.8962 348.085 30.0596 347.142C30.0596 366.289 30.0596 385.442 30.0596 404.588C19.973 400.359 9.95745 395.954 0 391.428Z" fill="#CEFF00"/>
<path d="M89.9468 427.771C89.9468 364.907 89.9468 302.044 89.9468 239.18C100.188 235.557 110.482 232.057 120.826 228.738C120.826 283.104 120.826 337.469 120.826 391.835C136.144 394.554 151.48 397.104 166.849 399.494C166.849 416.987 166.849 434.48 166.849 451.974C140.942 444.728 115.338 436.669 89.9468 427.777V427.771Z" fill="#CEFF00"/>
<path d="M193.099 458.863C193.099 427.428 193.099 395.993 193.099 364.558C181.63 315.488 169.542 266.572 156.265 217.954C167.275 214.841 178.311 211.864 189.392 209.017C196.14 238.334 202.636 267.702 208.945 297.116C209.074 297.11 209.139 297.103 209.268 297.097C216.384 264.609 223.287 232.076 230.029 199.511C240.916 197.212 251.823 195.043 262.762 192.989C250.654 250.913 238.114 308.74 224.831 366.405C224.831 399.706 224.831 433.008 224.831 466.309C214.215 463.991 203.644 461.492 193.099 458.863Z" fill="#CEFF00"/>
<path d="M269.781 475.22C269.781 380.721 269.781 286.216 269.781 191.717C280.397 189.845 291.039 188.095 301.707 186.525C301.707 284.485 301.707 382.452 301.707 480.412C291.039 478.843 280.403 477.093 269.781 475.22Z" fill="#CEFF00"/>
<path d="M391.104 490.047C378.157 429.134 365.074 368.252 351.675 307.436C351.546 307.436 351.475 307.436 351.345 307.436C351.345 367.174 351.345 426.906 351.345 486.644C341.401 485.585 331.482 484.423 321.563 483.17C321.563 383.363 321.563 283.562 321.563 183.755C333.51 182.244 345.463 180.882 357.448 179.668C369.446 235.977 381.173 292.338 392.757 348.738C392.886 348.738 392.957 348.738 393.087 348.738C393.087 291.408 393.087 234.079 393.087 176.749C403.057 176.129 413.021 175.6 423.004 175.167C423.004 280.695 423.004 386.224 423.004 491.752C412.362 491.339 401.733 490.751 391.104 490.041V490.047Z" fill="#CEFF00"/>
<path d="M513.332 491.751V466.179C513.203 466.179 513.132 466.186 513.002 466.192C507.778 479.088 500.54 497.795 483.724 497.866C462.486 497.957 453.878 467.813 449.661 451.702C439.303 412.15 438.037 369.924 438.057 329.494C438.076 289.916 439.316 247.664 452.205 209.572C457.965 192.53 469.143 168.735 490.182 169.193C530.031 170.071 534.28 236.958 536.811 264.77C527.131 269.194 517.497 273.72 507.882 278.292C506.784 267.973 505.447 237.068 490.182 237.384C480.857 237.578 477.377 252.753 475.665 260.269C470.532 282.787 470.357 306.634 470.331 329.487C470.299 354.232 470.151 380.011 475.026 404.523C476.795 413.428 480.696 431.186 492.003 430.87C508.515 430.411 510.329 401.617 510.529 389.51C510.549 388.205 510.529 386.862 510.529 385.538C504.356 385.616 498.176 385.674 492.003 385.719V327.285C507.326 327.298 522.644 327.324 537.967 327.356V490.505C529.76 491.008 521.552 491.428 513.338 491.758L513.332 491.751Z" fill="#CEFF00"/>
<path d="M594.367 485.604V181.34C622.554 184.601 650.566 188.805 678.469 193.964V255.756C661.137 253.974 643.792 252.379 626.428 250.977V298.414C638.878 298.84 651.328 299.305 663.778 299.809V360.8C651.328 361.207 638.878 361.588 626.428 361.936C626.428 401.811 626.428 441.686 626.428 481.555C615.767 483.066 605.073 484.403 594.373 485.604H594.367Z" fill="#CEFF00"/>
<path d="M689.059 470.932V196.011C699.649 198.122 710.214 200.363 720.74 202.778V464.158C710.214 466.573 699.649 468.814 689.059 470.925V470.932Z" fill="#CEFF00"/>
<path d="M798.288 289.638C795.789 279.416 791.908 263.711 780.375 261.503C771.199 259.746 768.9 271.899 768.506 278.266C767.395 295.986 784.036 303.199 797.649 312.103C819.036 326.097 826.604 348.272 826.597 373.133C826.597 404.252 813.489 442.351 780.853 452.515C746.712 463.151 738.433 419.504 734.656 395.224C744.168 387.753 753.776 380.424 763.521 373.256C764.257 383.342 767.931 406.732 782.938 403.697C793.141 401.63 797.849 391.059 797.81 381.347C797.732 362.872 781.02 359.004 767.867 350.932C741.63 334.84 737.568 302.514 737.736 274.895C737.865 253.172 745.472 203.811 779.58 214.04C807.27 222.344 818.009 251.1 823.911 276.704C815.206 280.746 806.721 285.047 798.294 289.638H798.288Z" fill="#CEFF00"/>
<path d="M905.94 404.588C905.94 385.965 905.94 367.348 905.94 348.724C894.679 349.732 883.41 350.7 872.142 351.637C872.142 373.812 872.142 395.987 872.142 418.155C861.926 422.075 851.646 425.82 841.32 429.436C841.32 365.462 841.32 301.488 841.32 237.507C851.646 241.123 861.926 244.868 872.142 248.788C872.142 269.626 872.142 290.465 872.142 311.297C883.417 312.44 894.679 313.621 905.94 314.848C905.94 297.348 905.94 279.849 905.94 262.355C916.021 266.604 926.049 270.97 936 275.516C936 314.151 936 352.792 936 391.428C926.049 395.974 916.021 400.339 905.94 404.588Z" fill="#CEFF00"/>
<g clip-path="url(#clip0_469_3)">
<path d="M567.32 384.207C567.295 383.147 567.182 381.353 567.808 380.695L567.497 380.55L567.624 380.223C568.03 381.069 568.019 382.918 568.071 383.955L567.32 384.207Z" fill="#141416" fill-opacity="0.807843"/>
<path d="M564.739 319.898L565.49 319.646C566.381 326.11 566.004 334.31 566.48 340.983C566.719 344.333 567.081 347.687 567.26 351.012L568.661 379.959C569.685 398.401 571.954 416.661 573.709 434.947C574.739 445.681 572.954 455.661 578.103 465.434C578.422 466.04 578.165 468.071 577.787 468.822C577.242 469.298 577.109 469.415 576.486 469.773C575.589 472.601 577.811 478.421 579.237 481.084C582.319 486.84 586.901 486 592.475 488.433C581.174 493.999 567.936 493.999 551.469 493.03C546.626 492.384 538.232 491.739 533.389 490.77C537.263 486.573 534.825 481.358 532.752 476.594C531.769 474.333 527.013 464.134 531.517 463.214C535.168 464.17 536.635 469.521 537.156 472.708C538.419 480.433 539.592 485.948 547.918 488.187C548.435 488.326 549.065 488.483 549.69 488.433C552.761 488.187 554.459 485.782 556.162 482.606C561.801 472.094 562.714 459.659 562.688 447.947C562.68 444.114 563.48 439.982 563.434 436.108C563.627 428.672 563.296 421.051 563.481 413.654L563.981 392.509C564.074 389.74 564.449 386.455 564.461 383.787C564.507 373.474 564.474 363.041 564.549 352.738C564.565 350.616 564.678 336.461 564.301 335.05C563.383 336.142 562.089 337.939 560.572 337.021C559.863 335.729 559.721 334.017 560.79 332.903C563.419 332.09 563.766 334.34 564.392 334.594C564.71 330.055 564.574 324.592 564.739 319.898Z" fill="black"/>
<path d="M568.912 446.222C569.507 448.106 569.504 450.522 569.784 452.513C571.102 461.862 570.167 471.471 571.974 480.725C572.344 482.62 575.62 487.063 574.985 488.54C565.13 485.045 568.06 454.665 568.912 446.222Z" fill="#F3F2F2"/>
<path d="M606.673 473.334L607.342 473.547C607.448 474.35 604.88 479.169 604.581 481.403C604.179 484.393 606.035 483.989 611.201 483.666C608.296 486.249 601.121 487.517 599.917 487.093C599.336 486.888 599.29 486.11 599.108 485.449C598.64 485.277 597.187 486.446 596.131 486.91L595.864 487.025C594.788 487.186 593.003 487.582 592.152 486.837C592.697 485.706 595.439 484.324 596.393 483.178C599.967 478.874 601.259 475.8 606.673 473.334Z" fill="black"/>
<path d="M481.729 462.744C483.162 462.665 484.7 462.458 485.881 463.351C487.648 464.686 491.03 471.785 491.231 473.727C488.528 473.399 482.112 466.117 481.729 462.744Z" fill="black"/>
<path d="M527.107 448.393C529.431 449.275 529.701 456.573 527.518 458.37C524.585 457.731 524.713 456.09 524.827 453.149C524.905 451.167 525.487 449.624 527.107 448.393Z" fill="black"/>
<path d="M557.764 362.573C558.456 362.682 558.607 362.652 559.092 363.163C560.291 365.659 559.355 372.663 558.844 375.549C558.481 375.396 558.579 375.401 558.292 375.044C557.921 372.062 557.055 365.263 557.764 362.573Z" fill="black"/>
<path d="M538.496 408.646L538.745 409.026C538.855 410.927 539.166 416.461 538.435 417.928L538.351 417.409C536.261 415.145 534.855 410.116 538.496 408.646Z" fill="black"/>
<path d="M556.666 401.703C557.032 403.492 559.471 405.57 557.353 407.847C555.07 407.304 556.281 403.404 556.666 401.703Z" fill="black" fill-opacity="0.988235"/>
<path d="M559.463 461.698C560.391 462.886 560.141 464.475 559.776 465.813C558.988 464.191 559.154 463.399 559.463 461.698Z" fill="black" fill-opacity="0.956863"/>
<path d="M573.101 0H577.084C588.931 2.70808 599.475 7.73816 601.337 21.1154C602.835 31.8716 604.952 42.6598 607.562 53.1935C607.895 54.5366 607.665 56.8598 607.485 58.2524C616.245 65.9834 635.972 72.2626 647.101 76.445C657.487 80.3484 667.168 84.9155 677.45 88.978C685.152 92.0218 693.241 94.8719 700.896 98.1434C711.058 102.516 720.939 107.517 730.481 113.118C741.967 119.764 753.293 126.372 762.627 135.995C764.378 137.801 772.732 145.882 770.837 148.162C768.95 148.778 765.866 147.545 763.851 147.571C757.422 147.656 750.903 147.339 744.491 147.798C743.42 147.874 741.544 149.091 740.159 148.796C737.524 148.953 734.176 148.651 731.628 148.847C726.322 149.257 721.679 149.518 716.332 149.536C710.651 149.556 704.779 149.298 699.14 149.455C693.481 149.612 687.197 150.961 681.47 150.37L681.178 150.408C677.082 150.434 672.805 150.117 668.692 149.914C665.863 149.666 662.61 150.005 659.838 149.606C648.682 148 637.734 147.884 626.882 144.458C616.344 141.133 610.295 132.644 602.096 125.941C601.059 136.728 598.027 147.522 596.476 158.248C596.142 160.558 596.205 164.832 596.218 167.179C599.29 172.007 605.115 176.149 608.992 180.532C619.612 192.54 629.193 206.503 634.929 221.538C636.151 224.74 638.585 232.099 631.947 229.917C627.144 228.338 626.297 226.523 621.007 228.088C615.791 226.615 614.503 227.222 610.011 226.352C598.717 224.164 593.223 222.1 583.141 217.005C579.907 229.395 575.252 240.856 572.534 253.305C571.229 259.278 571.652 265.585 570.818 271.498C571.211 278.943 570.587 287.279 570.306 294.747C570.236 296.577 570.137 304.78 569.823 306.148C568.915 305.326 569.154 290.447 569.294 288.254C569.198 288.161 568.875 288.008 568.739 287.938L567.035 288.519C567.383 303.108 567.403 315.257 566.902 329.873C565.995 333.172 566.199 338.016 566.774 341.358L566.81 341.557C567.448 338.516 567.972 335.548 568.126 332.432L568.749 331.924C568.671 336.733 567.267 355.634 565.096 358.793L564.741 358.727C563.622 356.778 564.784 335.22 564.514 330.854C563.694 317.567 563.342 303.958 562.91 290.649C562.842 281.786 562.325 272.403 562.444 263.569C562.597 252.163 559.731 243.207 557.131 232.283C556.424 229.317 555.263 216.54 553.116 214.885C549.746 214.873 545.298 218.187 542.496 218.497C537.262 219.078 531.944 220.412 526.865 221.189C521.168 222.061 518.868 220.334 513.119 223.168C506.393 221.23 502.705 225.73 498.838 224.639C497.159 222.46 499.751 218.286 500.895 216.151C508.961 201.089 521.05 188.613 533.087 176.691C536.676 173.136 541.515 170.025 544.86 166.649C546.561 157.181 542.101 133.762 540.705 122.941C538.973 124.719 535.867 126.859 533.862 128.771C530.899 131.518 528.272 134.682 525.073 137.159C520.886 140.403 516.555 141.757 511.471 142.862C508.797 143.331 505.62 144.752 503.013 145.062C496.427 145.842 489.779 146.794 483.199 147.571C480.107 147.936 476.725 147.566 473.66 147.89C468.151 148.471 462.842 149.022 457.291 148.798C453.723 148.874 449.351 147.139 445.893 147.251C433.988 147.637 422.275 148.333 410.365 147.593C404.086 147.203 398.78 147.209 392.477 146.316C387.172 146.648 381.723 146.59 376.434 147.11C374.75 147.565 373.999 147.921 372.597 146.836V146.443C373.596 145.69 374.878 143.401 375.836 142.292C397.231 117.531 429.155 103.971 458.999 92.0663C482.321 82.763 506.935 72.6793 529.995 62.4831C532.296 61.466 537.017 59.3744 538.806 57.7696C540.578 51.0478 541.828 43.9385 543.977 37.1233C546.203 30.0665 546.72 18.4943 550.757 12.2393C555.301 5.19811 565.456 1.9963 573.101 0ZM392.834 144.671C394.095 144.043 395.813 142.693 397.619 141.77L397.055 141.414C396.343 141.674 395.123 142.049 394.565 142.485C393.545 143.068 393.054 143.112 392.584 144.013L392.834 144.671ZM511.226 204.77C511.838 203.849 516.832 198.418 517.68 197.645C518.881 195.953 521.828 192.846 522.428 191.226C521.868 190.785 521.936 190.952 520.964 191.036C517.267 194.827 512.948 200.154 509.769 204.488C506.465 207.487 503.811 212.944 502.334 217.123C503.732 215.086 510.618 206.011 511.226 204.77ZM516.277 211.045C519.364 207.965 519.875 206.783 522.383 203.231C523.415 201.769 525.749 199.106 526.997 197.584C526.897 197.187 526.993 197.309 526.836 197.149C522.55 200.305 520.578 203.85 517.897 208.231C517.279 209.24 516.44 209.791 516.148 210.834L516.277 211.045ZM761.764 137.911C765.159 141.092 764.891 143.487 769.127 145.692C767.308 143.367 764.719 139.33 762.499 137.567L761.764 137.911ZM715.236 143.937L714.431 144.184C715.832 145.436 716.427 146.032 718.063 146.903L715.236 143.937ZM597.05 83.6518L597.928 84.1362L597.551 78.6093L596.954 78.4222C595.591 79.5475 596.643 82.0937 597.05 83.6518ZM528.463 129.848L528.092 129.578C528.013 128.467 527.99 127.511 527.976 126.401C527.574 128.668 527.706 132.038 527.758 134.405C528.279 133.071 528.49 131.269 528.463 129.848ZM549.081 19.4365L549.709 20.5711C550.133 18.9225 551.312 17.136 551.42 16.041L551.108 16.0667C549.998 17.2094 549.474 17.887 549.081 19.4365Z" fill="black"/>
<path d="M394.565 142.485C395.123 142.049 396.343 141.674 397.055 141.414L397.619 141.77C395.813 142.693 394.095 144.043 392.834 144.671L392.584 144.013C393.055 143.112 393.546 143.068 394.565 142.485Z" fill="#252527" fill-opacity="0.988235"/>
<path d="M567.035 288.52C566.986 288.228 566.943 287.933 566.907 287.635C566.686 285.849 566.634 281.838 566.555 279.856C566.321 273.903 566.128 267.949 565.976 261.993C565.802 256.565 565.448 251.039 565.171 245.604C564.933 240.931 568.758 241.377 570.278 245.075C570.089 246.161 569.325 248.739 569.487 249.754C570.294 254.834 569.918 260.761 569.754 265.678L569.784 265.983C570.032 268.594 569.578 272.566 570.24 274.64C570.35 273.95 570.54 271.827 570.818 271.499C571.211 278.944 570.587 287.28 570.305 294.748C570.236 296.578 570.137 304.78 569.823 306.148C568.915 305.326 569.154 290.448 569.294 288.255C569.198 288.162 568.874 288.009 568.739 287.938L567.035 288.52Z" fill="#F3F2F2"/>
<path d="M569.754 265.678L569.785 265.982C570.032 268.593 569.578 272.566 570.24 274.64C570.35 273.949 570.54 271.827 570.818 271.498C571.211 278.943 570.587 287.28 570.306 294.748C570.237 296.577 570.137 304.78 569.823 306.148C568.915 305.326 569.154 290.447 569.294 288.255C569.52 287.367 569.498 283.08 569.526 281.941C569.655 276.704 569.279 270.867 569.754 265.678Z" fill="#141416"/>
<path d="M650.222 107.416L650.004 107.128C646.838 103.056 635.441 94.0963 631.219 90.4084C629.718 89.0975 625.856 86.2476 624.79 84.8545L624.933 84.7188C627.846 86.2686 630.607 88.5022 633.317 90.3022C641.352 95.6388 648.614 102.025 656.088 108.11C657.235 109.044 662.856 113.478 663.481 114.228C664.374 116.074 665.292 115.846 665.693 117.405L666.291 117.641C672.477 123.878 677.693 130.953 682.871 138.026C683.953 139.504 685.22 140.98 686.236 142.482L685.348 143.077C673.315 128.051 667.231 117.223 650.449 105.822L650.239 105.95L650.722 106.941L650.222 107.416Z" fill="#F3F2F2"/>
<path d="M467.919 97.6445L468.088 98.3171C465.731 99.5297 463.11 100.903 460.857 102.313C455.309 105.784 448.926 107.485 443.169 110.42C432.135 116.162 421.392 122.447 410.98 129.252C405.145 132.992 399.279 136.66 393.749 140.857L393.151 139.982C398.454 135.479 402.887 133.384 408.483 129.66C423.691 119.538 439.28 110.483 456.097 103.271C460.105 101.553 463.756 99.1324 467.919 97.6445Z" fill="#D2D0CF"/>
<path d="M454.634 106.488C450.766 109.538 443.591 114.507 439.29 116.643C426.398 123.777 415.594 131.713 402.914 138.841C400.881 139.854 399.561 140.572 397.619 141.769L397.055 141.414C402.09 137.528 407.769 135.33 412.742 131.921C422.314 125.362 431.893 119.419 442.142 113.947C446.396 111.675 450.196 108.779 454.634 106.488Z" fill="#B4B2B1"/>
<path d="M650.722 106.939C654.19 112.899 659.633 118.195 664.087 123.387C669.328 129.498 673.955 135.733 677.958 142.717C678.911 144.381 681.361 148.49 681.47 150.369L681.178 150.407C680.14 148.983 678.903 146.252 677.792 144.536C674.736 139.808 671.647 134.724 668.26 130.232C661.93 121.838 655.968 116.501 650.222 107.415L650.722 106.939Z" fill="#D2D0CF"/>
<path d="M439.29 116.644C439.445 117.479 439.517 117.114 439.216 117.793C436.784 119.165 435.064 120.144 432.794 121.769C431.208 122.904 428.38 125.394 426.896 126.241C425.659 126.277 424.893 127.116 423.499 127.642C421.986 127.44 405.703 138.764 403.505 140.71C403.136 140.085 403.071 139.547 402.914 138.841C415.594 131.713 426.398 123.777 439.29 116.644Z" fill="#141416"/>
<path d="M663.481 114.227C671.046 119.228 697.468 140.777 701.092 147.918C699.699 148.036 693.811 140.347 692.298 139.218C687.934 135.961 670.481 118.721 666.291 117.639L665.693 117.403C665.292 115.844 664.374 116.072 663.481 114.227Z" fill="#D2D0CF"/>
<path d="M426.896 126.241C428.38 125.394 431.208 122.904 432.793 121.769C435.064 120.144 436.784 119.165 439.216 117.793C438.579 118.675 438.153 119.096 437.255 119.702C425.652 127.522 414.973 138.612 402.987 145.726C404.497 143.978 406.698 142.415 408.516 140.958C414.636 136.056 420.815 131.189 426.896 126.241Z" fill="#D2D0CF"/>
<path d="M403.504 140.71C405.703 138.765 421.986 127.441 423.499 127.642C419.819 130.669 415.227 133.545 411.229 136.239C409.248 137.575 401.576 143.581 400.163 144.114L399.79 144.03C400.807 142.692 402.321 141.891 403.504 140.71Z" fill="#9C9997"/>
<path d="M392.33 142.239C393.165 142.652 393.613 142.537 394.565 142.485C393.545 143.068 393.054 143.112 392.584 144.013L392.834 144.671C392.328 145.684 392.401 145.254 392.476 146.316C387.171 146.648 381.722 146.59 376.434 147.11L376.483 146.843C377.206 146.063 386.127 146.274 387.674 145.72C388.629 145.378 388.836 144.316 389.824 143.527C390.965 143.49 391.409 142.961 392.33 142.239Z" fill="#141416"/>
<path d="M686.236 142.481C687.899 144.728 690.385 147.86 691.163 150.458C689.238 148.702 686.982 145.273 685.349 143.077L686.236 142.481Z" fill="#B4B2B1"/>
<path d="M389.824 143.527C390.736 142.455 392.055 140.763 393.15 139.982L393.748 140.858C393.255 141.371 392.871 141.779 392.33 142.239C391.409 142.962 390.965 143.49 389.824 143.527Z" fill="#7F7D7D"/>
<path d="M467.918 97.6448C468.923 97.1539 470.012 96.374 470.92 96.6856L470.515 97.0668L470.955 96.5977C470.108 97.4332 469.146 97.8027 468.088 98.3174L467.918 97.6448Z" fill="#636261"/>
<path d="M556.631 10.307C557.285 10.1546 561.733 9.88241 561.197 10.3096C567.269 5.4724 572.442 -0.591776 580.921 4.58174C572.023 1.8492 565.915 5.47586 562.352 13.8973C560.124 19.1649 559.46 20.5976 559.813 26.409C560.914 22.8832 561.545 19.1985 563.213 15.8908C565.773 10.8117 566.779 6.55168 573.101 5.93919L574.462 6.65749C573.563 7.59491 573.646 7.2347 573.475 8.31881C573.716 8.99624 574.132 9.67617 573.729 10.2641C572.168 12.5386 568.504 13.2781 567.422 15.816C568.732 16.0565 568.471 15.2446 569.308 15.992C569.092 18.6999 566.027 20.1913 564.881 23.1323C562.01 30.4973 559.575 42.8402 555.631 49.4542C557.877 48.5004 560.167 47.007 561.378 44.816C564.265 42.832 565.459 40.5752 567.273 37.6745C566.687 40.3723 566.455 41.5727 566.478 44.3412C566.363 45.8192 566.202 47.2866 566.955 48.6334L567.469 49.2969C567.419 53.2969 566.106 56.8005 563.287 59.7265C561.011 62.0896 557.147 63.1517 554.056 64.309L554.202 64.6033L556.363 64.8297C560.237 63.8259 564.524 63.3541 568.048 62.3981C562.12 70.0647 556.451 68.1642 548.416 64.9061C550.553 67.007 552.139 67.969 555.11 68.6317C559.308 69.5686 563.61 70.702 567.834 71.4625L571.071 70.1335C568.553 72.5828 568.944 74.0049 567.32 76.5009C564.768 80.4222 565.143 81.8165 564.202 86.1644C565.962 88.6549 567.405 89.7785 565.961 92.7971C566.706 93.8872 566.709 93.5412 566.698 94.6433C566.268 95.072 566.01 95.3027 565.542 95.6907L565.646 95.9856C566.529 96.3392 566.471 96.1473 566.833 96.7941C566.48 97.4309 566.503 97.4055 565.967 97.897C566.865 98.6501 566.702 98.2992 566.966 99.291C566.785 100.379 565.788 101.911 565.074 102.743C564.438 103.429 563.898 103.817 563.832 104.706L566.364 102.991C566.159 104.367 566.165 108.613 565.153 109.028C564.837 112.288 565.337 116.984 564.231 119.571C563.74 120.721 563.836 120.48 563.819 121.854C563.753 130.417 563.596 134.754 562.839 143.157L563.134 143.604L563.763 143.732C564.497 145.384 564.208 153.531 563.702 155.464C564.181 162.525 562.725 176.837 567.371 181.529C569.521 182.693 571.854 182.975 574.271 183.441C572.4 192.801 572.416 201.669 571.361 211.18C570.621 217.854 570.866 221.373 568.549 227.966C568.092 223.022 567.469 217.437 567.274 212.539L566.916 212.715C566.656 215.276 566.984 217.955 566.748 220.167C566.53 227.086 567.012 235.016 563.227 240.656C559.654 231.982 562.272 224.205 560.33 215.489C560.167 214.757 558.926 212.653 558.525 211.934L557.267 207.184L557.222 206.725C556.625 204.691 556.823 201.463 556.326 199.39C555.471 195.818 554.102 192.361 553.045 188.803C551.935 185.062 551.036 179.239 549.688 175.727C549.802 174.763 549.819 173.197 549.857 172.179C550.081 173.049 550.26 174.897 550.379 175.874C551.096 170.314 551.316 168.174 551.177 162.631C551.158 158.238 551.233 154.715 550.478 150.355C549.665 145.671 547.311 139.812 546.699 135.368C542.434 123.324 540.858 110.493 542.082 97.776C542.498 93.4934 543.883 89.0718 543.861 84.6928C543.843 80.9547 540.665 79.2536 539.464 75.8685C538.596 73.4208 538.821 67.8052 536.982 66.0573C531.888 64.4632 509.71 76.1773 503.317 78.5603C485.68 85.1357 467.617 90.6788 450.416 98.3683C447.472 99.6842 444.428 101.455 441.425 102.54L441.137 102.642L440.794 103.309C439.791 103.795 438.876 104.023 438.331 104.829C438.975 105.437 438.715 105.247 439.635 105.486C436.121 107.249 431.795 109.777 427.928 109.868C422.803 112.545 417.587 115.1 412.489 117.803C403.17 122.746 395.232 128.134 386.788 134.371L385.727 133.932C390.091 129.535 397.915 124.141 403.144 120.768C412.453 114.734 422.132 109.292 432.125 104.475C442.397 99.5982 454.537 95.0414 465.179 90.8494C475.532 86.7834 485.819 82.5521 496.036 78.157C507.474 73.3315 519.019 68.4261 530.259 63.1782C533.545 61.6439 536.836 60.0536 540.203 58.7075C541.296 60.1326 541.799 60.8799 542.363 62.5696L542.652 62.4328C542.982 59.9633 541.383 56.4993 544.325 55.2683C545.164 53.9298 545.095 52.4843 545.256 50.8517C546.25 52.7756 547.11 54.0052 548.606 55.5488C547.508 52.5116 542.848 44.5446 546.897 41.8061C547.126 41.9828 548.195 44.7513 548.884 45.8531C548.641 40.8207 548.242 35.8415 548.206 30.8025C549.403 32.656 550.236 33.5962 551.841 35.0805C553.615 35.3328 554.58 35.4745 556.354 35.4562C556.079 36.5277 555.992 36.8647 555.945 37.9626C556.456 37.7109 558.687 32.7115 559.069 31.8994C557.956 32.9376 557.29 33.6014 556.296 34.7493C554.891 33.485 553.328 34.0413 552.617 33.3499C557.013 31.6706 557.206 25.6599 557.181 21.5847L557 21.6359C556.707 21.9978 556.646 22.082 556.451 22.4892L556.298 22.8131C554.709 22.6684 554.068 19.036 555.5 18.0562C556.487 18.2274 556.17 18.1626 557.02 18.9979C557.044 16.4019 556.764 12.9682 556.631 10.307Z" fill="#F3F2F2"/>
<path d="M567.371 181.529C569.521 182.694 571.854 182.976 574.271 183.441C572.4 192.802 572.416 201.67 571.361 211.181C570.621 217.855 570.866 221.374 568.549 227.966C568.092 223.023 567.469 217.438 567.274 212.54C567.471 209.475 567.327 204.588 567.338 201.38C567.744 197.458 568.253 193.352 567.709 189.443C567.458 187.581 567.485 183.4 566.951 181.843L567.371 181.529Z" fill="#F3F2F2"/>
<path d="M558.94 57.1592C561.776 54.243 564.383 51.9403 567.469 49.2969C567.419 53.2969 566.106 56.8005 563.287 59.7265C561.011 62.0895 557.147 63.1517 554.056 64.3089C553.013 64.1659 552.55 64.0657 551.482 64.1511C551.616 63.4207 551.773 62.965 551.575 62.2496C550.921 61.8441 550.473 61.7641 549.728 61.5478L549.939 61.0588C551.384 59.8699 552.705 59.4783 554.493 59.0087C555.855 58.4382 556.878 57.7482 558.125 56.967L558.94 57.1592Z" fill="#D2D0CF"/>
<path d="M558.125 56.9668L558.94 57.159L558.916 57.3166L558.578 58.325C559.102 59.0101 559.159 58.8274 560.217 59.1185C558.208 60.8319 557.213 61.0266 554.624 61.783C553.769 62.2854 553.347 62.728 552.47 62.7436C552.433 61.8829 552.498 61.6587 552.033 60.9851C551.154 60.774 550.594 61.1653 549.728 61.5476L549.939 61.0585C551.384 59.8697 552.705 59.4781 554.493 59.0084C555.855 58.438 556.878 57.748 558.125 56.9668Z" fill="#B4B2B1"/>
<path d="M554.624 61.7836C556.088 59.7253 557.88 59.3589 560.217 59.1191C558.208 60.8326 557.213 61.0273 554.624 61.7836Z" fill="#252527"/>
<path d="M558.125 56.9668L558.94 57.159L558.916 57.3166C557.955 58.0052 555.975 59.6083 554.793 59.4631L554.493 59.0084C555.855 58.438 556.878 57.748 558.125 56.9668Z" fill="#666569"/>
<path d="M551.177 162.631C551.534 161.851 551.272 162.012 551.832 161.761L552.157 162.259C551.408 164.202 551.235 177.72 552.224 179.696C552.746 179.203 553.619 179.016 554.293 179.25C554.426 180.297 555.751 192.862 555.766 192.823L555.389 191.857L555.243 191.958C555.347 194.052 556.396 196.979 556.846 199.128C557.449 202.013 557.332 203.827 557.222 206.725C556.625 204.691 556.823 201.463 556.326 199.39C555.471 195.818 554.102 192.36 553.045 188.802C551.935 185.062 551.036 179.239 549.688 175.726C549.802 174.763 549.819 173.197 549.857 172.179C550.081 173.049 550.26 174.897 550.379 175.874C551.096 170.314 551.316 168.174 551.177 162.631Z" fill="#D2D0CF"/>
<path d="M546.699 135.368C548.425 138.208 549.875 141.864 550.415 145.136C551.603 152.336 553.802 158.824 554.146 166.169C553.71 165.279 552.644 162.974 552.157 162.26L551.832 161.761C551.272 162.013 551.534 161.852 551.177 162.632C551.158 158.238 551.234 154.715 550.478 150.355C549.665 145.671 547.311 139.813 546.699 135.368Z" fill="#636261"/>
<path d="M567.709 189.441C568.253 193.35 567.744 197.457 567.337 201.379L566.448 200.695L566.167 198.812L564.636 195.561C564.123 194.524 563.562 192.976 563.122 191.863C563.814 191.692 564.17 191.481 564.798 191.168C565.509 191.099 566.241 191.05 566.955 190.992C567.71 190.452 567.468 190.652 567.709 189.441Z" fill="#636261"/>
<path d="M564.636 195.561C565.371 195.054 565.432 194.95 566.283 194.913C567.311 195.847 566.653 197.678 566.167 198.812L564.636 195.561Z" fill="#7F7D7D"/>
<path d="M562.591 101.833C562.671 100.808 562.812 99.7888 563.014 98.7804C563.315 97.3531 564.719 93.5898 565.961 92.7969C566.706 93.8869 566.708 93.541 566.698 94.643C566.267 95.0717 566.01 95.3024 565.541 95.6905L565.646 95.9853C566.529 96.339 566.47 96.147 566.833 96.7939C566.48 97.4306 566.503 97.4052 565.967 97.8967C566.865 98.6498 566.702 98.299 566.966 99.2907C566.785 100.378 565.787 101.911 565.074 102.742C564.181 101.923 563.79 101.958 562.591 101.833Z" fill="#D2D0CF"/>
<path d="M427.928 109.868C429.251 108.567 439.049 103.171 441.137 102.642L440.794 103.308C439.791 103.794 438.876 104.023 438.331 104.828C438.975 105.436 438.715 105.246 439.635 105.485C436.121 107.249 431.794 109.776 427.928 109.868Z" fill="#B4B2B1"/>
<path d="M563.819 121.855C563.802 120.334 563.3 119.629 562.992 118.21C562.26 114.832 562.587 111.494 565.153 109.028C564.837 112.288 565.337 116.984 564.231 119.572C563.739 120.721 563.836 120.481 563.819 121.855Z" fill="#B4B2B1"/>
<path d="M542.363 62.5694L542.652 62.4326C543.568 66.3491 547.744 76.6479 547.515 78.802C545.586 73.9102 541.878 67.8369 542.363 62.5694Z" fill="#141416"/>
<path d="M562.839 143.156L563.134 143.604L563.763 143.732C564.497 145.384 564.208 153.53 563.702 155.464C562.605 153.052 562.378 145.92 562.839 143.156Z" fill="#4B4C4D"/>
<path d="M566.451 184.638C566.487 183.551 566.321 182.666 566.951 181.842C567.486 183.399 567.458 187.58 567.709 189.442C567.469 190.652 567.711 190.452 566.956 190.992C566.242 191.05 565.51 191.1 564.798 191.169L564.467 190.543C566.183 189.243 566.141 186.851 566.451 184.638Z" fill="#474648"/>
<path d="M566.448 200.695L567.338 201.379C567.327 204.587 567.471 209.474 567.274 212.539L566.916 212.714C566.656 215.276 566.985 217.954 566.748 220.167C566.105 216.854 566.63 205.188 566.448 200.695Z" fill="#4B4C4D"/>
<path d="M562.873 186.248C564.702 183.824 565.053 185.413 566.451 184.639C566.14 186.852 566.183 189.243 564.467 190.543C563.456 188.679 565.085 188.715 562.873 186.248Z" fill="#D2D0CF"/>
<path d="M557.181 21.5852L557 21.6364C556.708 21.9983 556.646 22.0825 556.451 22.4897L556.298 22.8136C554.709 22.6688 554.068 19.0364 555.5 18.0566C556.487 18.2279 556.17 18.163 557.021 18.9984C557.057 19.6887 557.084 20.9496 557.181 21.5852Z" fill="#F3F2F2"/>
<path d="M566.955 48.6328L567.469 49.2963C564.383 51.9398 561.776 54.2425 558.94 57.1587L558.125 56.9665C558.82 56.3051 567.044 48.4892 566.955 48.6328Z" fill="#141416"/>
<path d="M562.591 101.834C563.79 101.958 564.181 101.923 565.074 102.743C564.437 103.429 563.898 103.817 563.831 104.706C563.432 105.609 563.526 105.797 562.849 106.293C562.213 105.33 562.492 102.978 562.591 101.834Z" fill="#F3F2F2"/>
<path d="M562.873 186.248C565.085 188.715 563.455 188.679 564.466 190.543L564.798 191.169C564.17 191.482 563.814 191.693 563.122 191.864C562.781 189.784 562.701 188.331 562.873 186.248Z" fill="#666569"/>
<path d="M551.481 64.1516C552.55 64.0662 553.012 64.1664 554.056 64.3095L554.202 64.6038L556.363 64.8302C555.083 65.0825 552.322 65.1789 551.481 64.1516Z" fill="#7F7D7D"/>
<path d="M557.876 84.7545C560.585 84.4465 561.315 84.7682 563.071 86.6433C561.296 86.0969 559.518 85.6223 557.876 84.7545Z" fill="#B4B2B1"/>
<path d="M597.05 83.6514L597.928 84.1358L597.99 92.7968C598.073 94.5889 598.25 97.379 598.095 99.1096C597.693 103.613 595.516 108.74 594.701 113.128C593.414 120.061 592.375 127.102 591.277 134.061C590.224 140.736 587.672 147.842 587.548 154.651C586.165 157.42 587.252 161.46 582.28 160.163C580.548 158.529 582.623 156.435 581.514 154.146C581.674 151.027 582.535 147.5 582.574 144.533C582.813 130.391 583.446 116.258 583.559 102.114C583.576 99.8829 582.722 96.9312 582.459 94.6517C582.246 92.802 582.125 91.2494 582.07 89.3916C583.403 87.3595 584.425 86.2771 586.879 85.7067C587.922 85.8992 588.711 86.0548 589.782 86.1236C592.771 86.1823 594.346 85.0164 597.05 83.6514Z" fill="#F3F2F2"/>
<path d="M597.05 83.6514L597.928 84.1358L597.99 92.7968C597.265 92.9219 596.799 93.0565 596.068 92.9372C595.91 91.7535 592.814 87.6779 591.931 86.3882C591.104 86.4068 590.474 86.5228 589.781 86.1236C592.771 86.1823 594.346 85.0164 597.05 83.6514Z" fill="#D2D0CF"/>
<path d="M616.129 67.5815L616.154 67.1526C614.553 66.5193 613.882 66.1903 613.382 64.3644L613.569 64.0703C614.324 64.4373 614.572 64.5214 615.408 64.5847C621.135 67.7735 625.554 69.3493 631.63 71.7929C638.821 74.7086 646.041 77.5475 653.292 80.3098C660.805 83.2236 669.102 87.2107 676.691 90.1379C684.166 93.0205 693.867 96.5449 701.104 99.6137C717.94 106.753 750.912 124.409 762.499 137.567L761.765 137.911C747.465 125.672 735.591 119.877 719.207 111.475C717.356 111.552 716.386 111.184 714.854 110.18L715.048 109.864L714.92 109.478C711.075 108 706.926 104.917 703.04 102.956L703.048 102.304C694.29 97.6898 683.065 93.5617 673.75 90.3033L653.887 83.321C647.235 80.9916 640.748 78.1928 634.238 75.5496C627.643 72.8714 622.352 71.3743 616.129 67.5815Z" fill="#F3F2F2"/>
<path d="M703.048 102.304C706.371 103.928 708.881 105.568 712.016 107.421C714.532 108.905 716.703 109.744 719.207 111.475C717.355 111.552 716.386 111.185 714.854 110.18L715.048 109.864L714.919 109.478C711.074 108 706.926 104.917 703.04 102.956L703.048 102.304Z" fill="#4B4C4D"/>
<path d="M673.261 96.5508C675.211 97.311 677.215 98.0712 679.116 98.943C692.26 104.976 705.342 110.906 717.678 118.526C722.225 121.325 726.715 124.218 731.142 127.202C733.381 128.704 736.787 131.258 739.001 132.352C739.884 132.925 754.303 142.618 753.5 142.398C754.945 143.673 756.081 144.784 757.425 146.142C754.26 144.369 751.772 141.976 748.931 140.231C742.339 136.183 736.131 131.874 729.727 127.652C715.376 118.114 700.208 109.867 684.398 103.01C686.55 104.824 690.177 106.789 692.703 108.329C695.382 109.739 698.088 112.09 700.726 113.443C712.513 119.484 722.992 127.175 734.086 134.304C739.458 137.757 746.826 140.498 751.122 145.039C744.305 141.372 737.57 137.56 730.918 133.606L730.276 134.176L729.38 134.314C728.195 134.442 728.561 134.246 727.695 134.919C730.235 137.232 739.376 144.374 741.063 146.86C735.656 143.321 728.181 136.987 723.063 132.802C719.677 130.033 703.922 118.983 702.532 116.803C702.182 116.354 702.062 116.167 701.778 115.676L702.152 115.311C697.07 113.223 689.92 107.34 684.958 104.304C680.987 101.875 676.849 99.5863 672.947 97.1168L673.261 96.5508Z" fill="#D2D0CF"/>
<path d="M702.152 115.311C704.214 116.104 707.054 117.91 709.031 119.094C715.498 122.966 721.782 127.134 727.867 131.584C728.047 131.714 731.062 133.742 730.918 133.606L730.276 134.176L729.38 134.313C728.195 134.442 728.561 134.245 727.695 134.919C730.235 137.231 739.375 144.374 741.063 146.859C735.656 143.321 728.181 136.987 723.063 132.801C719.677 130.032 703.922 118.983 702.532 116.802C702.182 116.354 702.062 116.167 701.778 115.675L702.152 115.311Z" fill="#131313"/>
<path d="M702.531 116.803C707.368 119.106 715.632 125.679 720.291 129.016C722.274 130.436 725.685 133.656 727.695 134.919C730.234 137.232 739.375 144.375 741.063 146.86C735.656 143.322 728.181 136.988 723.063 132.802C719.676 130.033 703.921 118.983 702.531 116.803Z" fill="#D2D0CF"/>
<path d="M590.987 64.5209C598.949 64.5495 598.41 65.5795 604.601 59.8604C604.387 60.8778 603.913 63.5761 603.574 64.3824C601.85 68.4755 599.434 70.2365 597.352 74.4942C597.392 75.7372 597.399 77.4159 597.551 78.6095L596.954 78.4224C595.59 79.5477 596.643 82.0939 597.05 83.652C594.346 85.017 592.771 86.1829 589.782 86.1242C588.711 86.0554 587.922 85.8998 586.879 85.7073L586.736 85.0784C585.129 84.3128 583.777 83.4095 584.24 81.2502C584.708 80.5118 584.973 80.4845 585.794 80.1268L586.065 80.0119L586.06 79.5444C585.221 78.9038 585.516 79.0996 584.289 79.018C583.145 78.1444 582.958 72.7863 584.474 72.0556C586.089 71.2776 588.316 70.8006 590.095 70.3555C594.07 69.3602 596.85 68.0466 600.171 65.724L595.927 66.7591C594.392 66.2029 592.495 65.2363 590.987 64.5209Z" fill="#F3F2F2"/>
<path d="M594.611 82.866C595.14 78.7369 595.444 78.1782 597.352 74.4941C597.392 75.7371 597.399 77.4158 597.551 78.6094L596.954 78.4223C595.59 79.5476 596.643 82.0938 597.05 83.6519C594.346 85.0169 592.771 86.1828 589.782 86.1241C588.711 86.0553 587.922 85.8997 586.879 85.7072L586.736 85.0783C590.92 85.7973 591.58 85.8339 594.611 82.866Z" fill="#252527"/>
<path d="M591.02 43.252C591.92 43.6277 592.939 47.6402 595.064 49.6565C595.927 50.2165 596.985 50.6193 598.024 50.5382C598.095 50.4142 598.297 50.0928 598.321 49.974C599.576 47.942 600.925 45.8091 602.438 43.9624C602.393 47.1119 602.302 48.774 601.021 51.8114C600.527 52.9812 598.756 54.2957 599.02 54.8964L599.72 54.974L599.972 54.7225C600.31 54.3926 600.357 54.3732 600.804 54.1794C601.243 54.6583 601.241 54.797 601.459 55.4018C602.43 55.7522 602.68 54.9426 602.834 55.5302C603.368 57.5735 602.657 61.5049 600.626 62.45C599.098 62.515 598.785 62.0136 597.604 61.8173C594.635 61.1109 591.896 60.0949 590.508 57.0945L590.692 56.7931C591.609 57.2589 591.943 57.4929 592.992 57.5339C590.155 54.062 587.117 52.7576 584.938 49.0347C585.683 48.6762 585.69 48.7207 586.141 48.0586C586.164 47.5561 586.188 47.5692 586.393 47.1029C587.727 47.187 589.289 48.5744 591.142 49.0533C593.217 48.5454 591.486 44.7895 591.02 43.252Z" fill="#F3F2F2"/>
<path d="M597.604 61.8172C594.634 61.1108 591.896 60.0948 590.507 57.0944L590.692 56.793C591.609 57.2588 591.943 57.4928 592.992 57.5338C594.091 58.3131 596.916 60.7157 597.604 61.8172Z" fill="#D2D0CF"/>
<path d="M391.201 134.244C403.9 126.212 416.857 118.935 430.061 111.782C434.146 109.569 437.876 107.315 442.205 105.479C437.141 109.079 429.607 113.108 424.136 116.271C421.729 117.663 419.012 119.309 416.513 120.473C417.369 120.811 417.279 120.627 417.736 121.256C417.103 122.234 411.428 125.287 410.067 126.238C404.026 130.462 397.996 134.727 391.934 138.922C388.69 141.166 387.473 144.753 382.662 144.342C382.476 141.711 389.943 138.39 390.49 137.152C390.11 136.747 390.287 136.844 389.802 136.64C390.019 136.366 391.074 135.682 391.414 135.446L391.201 134.244Z" fill="#4B4C4D"/>
<path d="M391.2 134.244C403.899 126.212 416.857 118.935 430.06 111.782C434.145 109.569 437.875 107.315 442.205 105.479C437.14 109.079 429.607 113.108 424.136 116.271C421.729 117.663 419.012 119.309 416.512 120.473C414.364 121.396 392.356 134.419 391.414 135.446L391.2 134.244Z" fill="#B4B2B1"/>
<path d="M640.032 86.8896C662.52 98.0063 684.538 111.79 704.135 127.513C709.483 131.803 714.019 137.331 718.771 141.395L718.462 142.696C702.357 127.062 687.105 115.017 667.671 103.878L667.256 103.366C666.658 103.778 666.835 103.69 666.51 104.491C665.418 103.693 664.331 103.083 663.176 102.386C655.28 97.6164 647.172 92.9884 639.639 87.6599L640.032 86.8896Z" fill="#F3F2F2"/>
<path d="M580.044 183.406C579.245 184.586 578.512 186.158 577.632 187.144L577.33 186.973C575.982 184.31 579.435 180.128 579.851 177.95C581.271 170.517 579.991 161.71 581.514 154.146C582.622 156.436 580.548 158.529 582.28 160.163C587.251 161.461 586.165 157.421 587.548 154.651C587.241 159.664 585.326 164.685 585.296 169.793C585.29 170.7 585.211 171.945 585.084 172.821C585.054 176.845 584.796 178.451 583.397 182.279C582.478 184.586 580.6 189.879 579.071 191.419L578.681 191.367C578.234 189.3 579.47 185.519 580.044 183.406Z" fill="#B4B2B1"/>
<path d="M585.084 172.82C585.054 176.844 584.795 178.45 583.397 182.278C583.192 181.975 582.247 180.852 582.184 180.651C581.168 177.42 584.369 175.835 585.084 172.82Z" fill="#7F7D7D"/>
<path d="M584.211 169.221C584.633 171.092 583.155 172.559 581.98 173.809C581.854 171.921 583.023 170.856 584.211 169.221Z" fill="#252527"/>
<path d="M520.964 191.036C521.443 189.955 523.673 187.693 524.5 186.792C531.25 179.44 538.425 172.839 546.458 166.918C546.837 166.639 547.312 165.332 547.492 164.837C548.253 166.799 549.669 170.239 549.857 172.179C549.819 173.197 549.802 174.763 549.688 175.727C548.486 174.507 547.159 173.195 546.009 171.939C544.034 173.513 541.358 175.583 539.52 177.154C535.46 180.624 520.868 195.995 517.68 197.645C518.881 195.953 521.829 192.846 522.428 191.226C521.868 190.785 521.936 190.952 520.964 191.036Z" fill="#F3F2F2"/>
<path d="M431.541 133.316C435.791 130.052 439.822 125.552 444.734 121.939C457.066 112.869 469.589 105.626 482.794 97.9468C490.775 93.3056 500.064 87.0851 508.583 83.6367L508.865 84.4376C502.772 87.5046 496.953 92.1408 490.953 95.4928C487.158 97.6131 483.504 99.8139 479.793 102.081C478.301 102.992 475.642 103.779 474.216 104.601C470.832 106.553 466.59 108.616 463.348 110.686C455.244 115.861 447.336 121.76 439.781 127.699C437.067 129.833 434.548 132.306 431.784 134.494L431.541 133.316Z" fill="#F3F2F2"/>
<path d="M581.906 16.5029C589.355 20.7296 589.742 35.5338 593.229 36.756C594.647 36.2752 597.341 35.0142 598.646 34.2185L597.549 39.2266C597.094 43.7055 597.772 44.8996 598.127 49.2827C598.16 49.7035 598.033 49.5025 598.322 49.9735C598.297 50.0923 598.095 50.4137 598.024 50.5377C596.985 50.6188 595.927 50.216 595.065 49.656C592.939 47.6397 591.92 43.6272 591.02 43.2515C590.26 42.7253 590.402 41.5285 590.375 40.6692C590.266 40.2233 589.707 38.7946 589.523 38.2862C589.339 37.532 589.226 36.2765 589.128 35.4691C586.655 28.4816 586.076 22.5066 581.906 16.5029Z" fill="#F3F2F2"/>
<path d="M589.127 35.4697C591.326 38.2557 594.056 40.6299 595.582 42.5826C596.3 40.7733 596.232 40.6578 597.549 39.2272C597.094 43.7062 597.772 44.9003 598.126 49.2834C598.16 49.7041 598.033 49.5032 598.321 49.9742C598.297 50.093 598.095 50.4144 598.024 50.5383C596.985 50.6194 595.927 50.2167 595.065 49.6566C592.939 47.6404 591.92 43.6278 591.02 43.2521C590.26 42.7259 590.401 41.5291 590.375 40.6698C590.266 40.2239 589.707 38.7953 589.523 38.2868C589.339 37.5327 589.226 36.2772 589.127 35.4697Z" fill="#D2D0CF"/>
<path d="M590.375 40.6689C591.997 42.372 595.109 47.6657 595.065 49.6558C592.939 47.6395 591.92 43.627 591.02 43.2512C590.26 42.7251 590.401 41.5283 590.375 40.6689Z" fill="#252527"/>
<path d="M589.127 35.4697C591.326 38.2557 594.056 40.6299 595.582 42.5826C596.079 43.3479 596.08 43.6338 595.758 44.4448C593.979 43.9519 595.361 43.1557 594.676 42.4299C592.686 40.3228 591.627 39.8007 589.833 37.288L589.523 38.2868C589.339 37.5327 589.226 36.2772 589.127 35.4697Z" fill="#666569"/>
<path d="M619.141 88.1865C623.27 90.8267 631.024 101.204 634.289 105.037C645.133 117.768 660.665 133.412 667.733 148.575C664.287 145.295 660.731 138.558 657.667 134.541C653.685 129.321 649.487 123.768 645.082 118.921C643.316 116.725 640.666 114.202 638.627 112.159C644.496 121.548 653.72 137.464 657.596 147.704C654.136 143.013 652.983 140.092 650.331 135.095C646.197 127.303 642.043 119.469 637.59 111.856C632.62 103.357 624.65 95.8578 619.141 88.1865Z" fill="#F3F2F2"/>
<path d="M456.728 131.244C471.789 117.702 489.304 107.023 504.522 93.5531C509.967 88.7334 521.267 81.4398 527.925 78.9141C524.578 81.9633 519.694 85.0911 515.929 87.8561C509.441 92.6209 502.798 98.0089 496.107 102.424C490.783 105.938 486.831 109.238 482.04 113.353C480.743 113.786 478.555 114.981 477.588 115.922C470.942 120.29 463.375 126.963 457.103 131.984L456.728 131.244Z" fill="#F3F2F2"/>
<path d="M536.379 86.5156C536.514 88.5545 529.567 99.0096 528.621 101.688C525.885 109.434 523.7 117.645 521.417 125.526C520.009 130.391 519.062 135.863 516.457 140.173C518.583 131.065 521.622 121.646 524.17 112.608C524.6 111.084 525.828 108.776 526.486 107.191C521.292 113.905 516.991 123.877 514.355 131.965C513.614 134.213 512.441 136.961 511.39 139.069C511.994 134.854 515.244 126.787 516.565 122.033C510.271 129.778 509.687 136.222 505.075 142.937C505.252 141.357 510.102 130.368 511.24 128.633C513.97 124.467 517.465 119.788 520.163 115.233C525.601 106.054 529.444 94.5893 536.379 86.5156Z" fill="#D2D0CF"/>
<path d="M525.12 87.083L525.325 87.219C524.785 88.2391 520.965 91.9355 519.932 93.0528C514.355 99.0885 508.651 105.109 504.424 112.193C500.084 119.466 495.903 126.605 491.55 133.84C489.439 137.349 487.195 141.967 484.751 145.116C489.02 133.87 497.749 122.06 503.987 111.466C501.827 113.042 499.826 114.825 498.014 116.791C491.998 124.147 484.547 131.834 479.126 139.678C477.284 142.344 476.471 143.767 474.211 146.172C477.835 138.25 483.991 131.89 489.408 125.187C494.454 118.943 500.315 113.141 505.888 107.32C511.619 101.333 518.502 91.7116 525.12 87.083Z" fill="#F3F2F2"/>
<path d="M594.682 168.144C596.856 169.728 599.684 172.611 601.653 174.494C609.131 181.646 615.4 189.546 620.962 198.286C620.425 198.502 620.605 198.554 620.21 198.435C619.233 196.225 610.775 187.228 608.739 185.363C603.756 180.796 599.564 178.209 595.591 172.338C595.543 172.389 595.495 172.44 595.446 172.491L595.2 172.741C594.361 173.605 593.853 174.311 592.605 174.157L592.401 173.546C592.695 171.212 593.44 170.17 594.682 168.144Z" fill="#F3F2F2"/>
<path d="M440.794 103.309C445.314 101.91 450.138 99.5064 454.677 97.8113C468.196 92.7633 481.987 88.6604 495.433 83.4177C498.864 82.08 502.041 80.6383 505.565 79.457L505.862 80.1121C499.005 83.2162 492.078 86.216 485.004 88.8103C480.992 90.2812 476.437 91.2211 472.471 92.7011C461.463 96.8097 450.579 101.278 439.635 105.486C438.716 105.247 438.975 105.437 438.331 104.829C438.877 104.023 439.792 103.795 440.794 103.309Z" fill="#F3F2F2"/>
<path d="M726.352 121.396C732.16 123.917 736.792 127.499 742.12 130.42C750.578 135.056 755.554 138.407 762.657 144.873C760.295 143.873 759.249 143.452 757.359 141.755C754.964 143.244 754.839 140.889 753.5 142.397C754.303 142.617 739.884 132.924 739.002 132.352L739.07 132.218L739.04 131.882C739.411 131.487 739.783 131.095 740.16 130.706C735.855 127.428 729.577 124.108 726.352 121.396Z" fill="#252527"/>
<path d="M726.352 121.396C732.16 123.917 736.792 127.499 742.12 130.42C750.578 135.056 755.554 138.407 762.657 144.873C760.295 143.873 759.249 143.452 757.359 141.755C754.688 139.254 743.691 132.769 740.16 130.706C735.855 127.428 729.577 124.108 726.352 121.396Z" fill="#9C9997"/>
<path d="M633.637 222.256C630.111 215.672 626.124 208.285 620.877 202.954C615.065 197.047 610.357 190.368 604.772 184.273C603.551 182.95 602.399 181.523 601.453 179.988C605.005 183.095 618.339 197.433 620.21 198.434C620.605 198.553 620.425 198.502 620.962 198.285C625.916 207.033 631.049 211.201 633.637 222.256Z" fill="#E0DDDB"/>
<path d="M607.012 85.2607C610.717 89.9786 613.895 97.6864 616.56 103.199C619.562 109.409 622.455 115.131 625.658 121.229L625.267 121.711C625.609 124.014 627.934 130.316 628.733 133.004C628.532 133.701 628.531 133.828 628.051 134.402C625.28 125.125 623.185 119.765 618.516 111.113C618.294 109.671 617.961 109.394 616.754 108.576C614.249 102.454 614.951 101.717 610.584 95.5563L609.859 94.6563C608.432 91.0837 607.693 89.0863 607.012 85.2607Z" fill="#F1F0F2"/>
<path d="M699.112 104.084C701.527 103.919 708.392 108.7 710.905 110.155C717.29 113.844 723.749 117.407 730.276 120.84C740.583 126.254 750.428 133.075 760.172 139.423C761.617 140.364 764.001 141.897 764.533 143.606C752.37 134.93 738.204 126.485 724.991 119.561C716.143 114.922 707.789 108.462 699.112 104.084Z" fill="#B4B2B1"/>
<path d="M583.572 6.49707C584.821 7.03409 586.586 8.97344 587.647 9.99751C589.208 10.2514 593.422 10.302 592.848 12.651C592.236 15.1588 591.682 16.9865 591.4 19.669C592.005 18.5121 592.635 17.1132 593.209 15.9192C593.76 18.1052 593.869 19.189 594.077 21.3916C593.406 22.3771 592.881 23.4503 592.329 24.5084C592.413 26.4081 592.565 27.3135 592.929 29.1954C593.339 30.2101 594.733 32.441 594.749 33.0231C590.914 32.498 591.666 26.1199 590.793 23.5238C589.194 18.7699 586.484 10.3643 583.572 6.49707Z" fill="#F2F1F0"/>
<path d="M616.112 89.5518C623.067 93.931 631.258 108.437 633.34 116.4C635.65 125.235 639.926 137.169 641.234 145.855C640.2 144.532 632.871 119.487 631.875 115.965C630.864 112.39 627.807 106 626.132 102.441C624.114 98.1533 619.042 93.2113 616.112 89.5518Z" fill="#F3F2F2"/>
<path d="M568.19 25.3578C570.284 24.8724 571.436 26.0056 571.503 28.0493C570.802 32.2486 569.127 35.5457 568.567 39.8423C567.643 37.8716 568.972 36.2764 567.996 34.3541C567.336 36.3117 563.352 42.2561 561.784 43.2937C562.528 41.5218 563.554 38.0647 564.232 36.0853C565.484 32.4851 566.804 28.9086 568.19 25.3578Z" fill="#D2D0CF"/>
<path d="M567.996 34.3547C568.353 30.9917 569.584 30.3227 571.503 28.0498C570.802 32.2491 569.127 35.5463 568.567 39.8428C567.643 37.8722 568.972 36.277 567.996 34.3547Z" fill="#9C9997"/>
<path d="M668.755 90.7676C674.249 92.2612 679.097 94.092 684.406 96.0635C690.223 98.2245 697.403 100.502 703.04 102.955C706.926 104.917 711.074 107.999 714.919 109.477L715.048 109.863L714.854 110.179C708.152 107.621 702.944 103.868 695.598 101.891C691.531 100.796 686.14 97.6808 681.79 96.3142C677.314 94.9066 672.958 92.6309 668.315 91.3276L668.755 90.7676Z" fill="#D2D0CF"/>
<path d="M598.115 181.891L598.557 181.372C603.9 187.555 608.8 194.021 613.807 200.471C614.918 201.903 616.141 203.341 617.383 204.666C621.828 208.841 625.42 213.508 628.303 218.886C628.787 219.788 629.963 221.642 629.937 222.638L629.611 222.698C628.661 221.295 628.163 219.739 627.27 218.367C624.699 214.416 621.932 210.005 618.37 206.904C616.378 205.169 615.133 203.796 613.582 201.786L613.322 202.375C613.644 203.025 613.948 203.685 614.235 204.351L613.906 204.727C612.174 204.29 610.144 199.543 609.993 197.846C609.207 196.995 607.689 194.673 606.874 193.601C603.918 189.725 600.998 185.821 598.115 181.891Z" fill="#B4B2B1"/>
<path d="M609.993 197.845C610.697 198.512 613.054 200.983 613.582 201.785L613.323 202.374C613.644 203.025 613.948 203.684 614.235 204.351L613.906 204.726C612.175 204.289 610.144 199.542 609.993 197.845Z" fill="#636261"/>
<path d="M666.51 104.49C666.835 103.689 666.658 103.777 667.256 103.365L667.671 103.877C669.345 107.794 689.571 121.956 693.872 125.344C698.204 128.757 702.778 133.032 707.057 136.745C709.857 139.174 712.533 141.041 715.237 143.937L714.431 144.184C711.277 140.927 707.153 138.719 704.242 135.833C697.384 129.037 690.297 124.103 682.76 118.285C677.158 113.907 671.737 109.304 666.51 104.49Z" fill="#D2D0CF"/>
<path d="M529.319 85.2002L529.478 85.5336C526.475 89.39 523.002 92.6844 520.312 96.7483C517.921 100.362 516.342 104.202 514.522 108.081C510.647 116.341 507.794 124.857 504.525 133.365C503.356 136.409 502.554 139.488 501.291 142.646L501.102 142.583L500.962 142.133C502.564 136.021 504.656 130.227 506.813 124.307C512.166 109.609 517.569 95.9862 529.319 85.2002Z" fill="#F3F2F2"/>
<path d="M522.361 135.848C525.353 125.767 527.569 117.384 530.222 107.235C530.805 110.098 532.018 107.676 531.147 110.961L531.639 111.068C530.948 116.927 529.352 123.689 528.463 129.848L528.092 129.578C528.013 128.467 527.99 127.511 527.976 126.401C527.942 124.009 529.114 119.777 529.156 116.428C527.496 120.896 524.957 132.864 522.361 135.848Z" fill="#B4B2B1"/>
<path d="M433.741 137.27C444.364 126.417 458.759 118.382 470.613 109.02C472.056 107.88 474.875 105.258 476.272 104.521C469.83 111.921 460.251 117.477 452.385 123.231C446.683 127.403 439.879 132.906 434.68 137.69L433.741 137.27Z" fill="#F3F2F2"/>
<path d="M680.697 108.682C680.878 108.69 681.085 108.692 681.222 108.752C686.203 110.923 697.873 118.614 701.685 121.809C707.076 126.327 724.579 141.11 727.812 145.878C725.346 144.902 711.787 131.633 708.769 128.933C699.446 120.594 691.496 115.084 680.697 108.682Z" fill="#D2D0CF"/>
<path d="M491.314 109.8C491.04 111.455 484.75 117.567 483.232 119.118C474.562 127.899 466.873 137.597 460.3 148.04L460.214 147.443C466.042 135.287 481.05 118.997 491.314 109.8Z" fill="#D2D0CF"/>
<path d="M606.477 68.1367C611.223 71.3121 602.176 81.0714 600.04 83.9229L600.009 84.0682L599.761 84.1725C598.923 79.5477 604.058 72.7361 606.477 68.1367Z" fill="#F3F2F2"/>
<path d="M477.588 115.922C478.555 114.98 480.743 113.785 482.04 113.353C475.452 119.705 468.415 127.754 462.243 134.535C458.126 139.059 456.114 142.979 451.059 147.29C455.692 141.471 460.225 135.448 464.965 129.705C466.798 127.484 476.942 117.504 477.588 115.922Z" fill="#D2D0CF"/>
<path d="M602.759 196.554C601.638 194.738 594.916 183.769 594.805 182.483C600.753 189.26 613.489 210.297 616.176 218.256C616.415 218.963 616.89 219.489 616.842 220.28C615.906 219.175 615.86 218.054 615.207 217.151C613.526 214.824 612.465 212.253 611.094 209.739C609.086 206.131 606.989 202.574 604.805 199.07C604.528 198.228 603.405 197.206 602.759 196.554Z" fill="#9C9997"/>
<path d="M607.149 59.8496C610.249 61.1764 612.69 62.6307 615.408 64.5849C614.572 64.5216 614.324 64.4375 613.569 64.0705L613.382 64.3646C613.883 66.1905 614.553 66.5195 616.155 67.1528L616.129 67.5817C611.462 65.939 611.113 66.0895 606.338 67.7603C606.322 64.8752 606.658 62.6413 607.149 59.8496Z" fill="#F3F2F2"/>
<path d="M541.276 179.97L541.156 181.08C536.622 186.278 530.972 191.358 526.428 196.674C525.302 197.992 522.623 199.712 521.276 201.139C519.894 202.603 517.344 207.243 515.94 207.8C516.098 207.211 519.223 201.8 519.613 201.431C526.975 194.452 533.78 186.795 541.276 179.97Z" fill="#B4B2B1"/>
<path d="M614.392 113.85C615.872 122.435 618.035 130.697 619.51 139.591C616.439 132.587 616.279 125.534 614.432 118.528C614.017 124.234 615.451 129.285 614.998 134.868C613.963 131.311 612.957 118.83 612.516 114.384C613.317 115.57 612.976 117.029 613.874 118.702L614.162 118.525C614.498 116.617 613.908 115.728 614.392 113.85Z" fill="#B4B2B1"/>
<path d="M636.192 79.6787C643.52 81.7572 651.839 85.7935 659.194 88.2087C662.433 89.272 665.423 89.5691 668.755 90.7692L668.315 91.3292C666.428 90.7596 664.336 90.0202 662.394 89.8929L662.007 90.1024C662.995 91.3147 671.453 95.7229 673.261 96.5522L672.947 97.1183C668.957 95.2131 663.632 91.7625 659.363 89.5338C653.349 86.394 640.809 83.3811 636.192 79.6787Z" fill="#9C9997"/>
<path d="M616.754 108.576C617.962 109.394 618.294 109.671 618.516 111.113C618.4 112.493 621.346 123.302 621.837 125.64C623.037 131.361 624.687 137.493 625.625 143.309C623.373 138.872 622.113 131.607 620.974 126.624L616.754 108.576Z" fill="#D2D0CF"/>
<path d="M683.393 120.649C684.322 121.103 686.493 123.554 687.255 124.382C691.411 128.902 705.869 143.81 706.661 148.844C706.049 148.392 701.475 142.461 700.729 141.405C695.598 134.148 688.369 127.824 683.393 120.649Z" fill="#D2D0CF"/>
<path d="M592.628 185.859C594.833 187.345 597.317 194.23 598.501 196.558C602.874 205.157 606.241 213.131 609.293 222.278C609.167 222.155 593.596 188.3 592.628 185.859Z" fill="#B4B2B1"/>
<path d="M462.982 117.225L463.011 117.404C454.432 126.208 445.969 135.123 437.623 144.148L437.474 144.055C442.347 136.484 448.119 131.001 454.635 124.879C456.937 122.718 460.408 118.944 462.982 117.225Z" fill="#F3F2F2"/>
<path d="M546.08 179.799C544.247 183.75 539.399 189.804 536.471 193.227C535.759 193.95 533.416 196.252 533.076 196.97C530.155 200.04 527.2 204.713 524.935 208.368L524.594 207.729C526.475 205.535 527.911 201.679 530.063 198.992C535.221 192.549 540.906 186.167 546.08 179.799Z" fill="#B4B2B1"/>
<path d="M530.222 107.235C532.731 98.7189 532.9 96.9765 538.287 89.6084C536.746 93.3927 535.249 96.8954 533.945 100.781C533.323 102.634 532.109 110.063 531.638 111.067L531.147 110.96C532.018 107.675 530.805 110.097 530.222 107.235Z" fill="#D9D8D9"/>
<path d="M504.443 121.533C503.214 125.61 500.425 129.519 498.955 133.287C497.317 137.486 497.489 140.963 494.692 145.064C495.899 141.023 496.617 137.919 498.162 133.93C497.024 135.122 495.566 137.197 494.542 138.568C492.436 141.211 491.808 144.079 489.515 146.033C490.767 143.932 491.674 141.526 492.954 139.525C494.672 136.84 496.586 134.178 498.382 131.517C500.582 128.257 502.358 124.761 504.443 121.533Z" fill="#B4B2B1"/>
<path d="M609.859 94.6562L610.584 95.5562C610.511 97.1555 613.765 111.616 614.391 113.849C613.908 115.727 614.497 116.617 614.162 118.524L613.874 118.701C612.976 117.028 613.317 115.569 612.515 114.383C611.373 107.845 610.487 101.264 609.859 94.6562Z" fill="#F3F2F2"/>
<path d="M547.257 183.997C547.475 185.736 534.123 208.518 532.172 211.88C532.59 208.513 544.558 187.099 547.257 183.997Z" fill="#B4B2B1"/>
<path d="M486.705 117.095C486.698 118.032 483.058 123.001 482.289 124.214C479.476 128.655 477.178 133.411 474.662 138.018C473.317 140.48 471.617 144.306 469.822 146.285L469.73 145.707C472.094 138.715 481.996 122.876 486.705 117.095Z" fill="#B4B2B1"/>
<path d="M658.789 121.746C661.648 124.54 665.972 134.415 668.05 138.261C669.702 141.319 670.866 145.712 672.698 149.016C671.526 148.522 671.414 148.251 670.836 147.135C667.053 139.843 664.306 132.075 660.217 124.93C659.614 123.875 659.133 122.913 658.789 121.746Z" fill="#D2D0CF"/>
<path d="M573.101 5.93949C578.706 5.52906 582.271 5.22444 583.6 11.5205C581.677 10.7908 577.663 10.1271 576.864 9.01156C576.905 8.44445 576.917 8.07178 576.914 7.50279C576.264 6.85868 575.388 6.78839 574.462 6.65779L573.101 5.93949Z" fill="#F3F2F2"/>
<path d="M625.658 121.23C627 122.918 627.512 124.358 628.575 126.09C632.358 132.259 635.254 139.117 637.269 146.09C633.636 140.185 631.488 132.884 627.922 126.807C627.031 125.288 626.467 123.018 625.268 121.713L625.658 121.23Z" fill="#F3F2F2"/>
<path d="M580.834 63.9199C585.594 63.9448 589.081 65.9528 593.609 66.9413L593.939 67.0117L593.928 67.3711C588.961 68.655 584.304 67.8366 580.834 63.9199Z" fill="#F3F2F2"/>
<path d="M589.755 188.356C591.4 189.902 594.809 203.738 595.402 206.719C595.739 208.416 596.333 213.601 596.445 215.494C596.355 215.361 590.066 189.996 589.755 188.356Z" fill="#B4B2B1"/>
<path d="M555.802 204.438C556.088 205.266 556.366 206.378 556.61 207.243L557.267 207.183L558.525 211.934L558.018 212.153C558 212.662 558.007 212.488 557.767 212.986C556.782 213.424 556.613 213.506 555.548 213.615C552.808 212.398 555.166 206.659 555.802 204.438Z" fill="#F3F2F2"/>
<path d="M556.61 207.244L557.267 207.184L558.525 211.935L558.018 212.153L556.61 207.244Z" fill="#4B4C4D"/>
<path d="M533.076 196.972C533.415 196.253 535.759 193.951 536.471 193.229C535.78 196.729 531.255 201.697 529.334 205.09C527.486 208.356 525.759 212.153 523.827 215.235C524.893 209.521 529.7 202.62 533.036 197.698C533.049 197.456 533.062 197.213 533.076 196.972Z" fill="#636261"/>
<path d="M456.192 110.409L456.408 110.864C447.732 116.411 439.558 122.178 432.019 129.215C431.404 129.789 430.648 130.488 429.962 130.958L429.831 130.708C436.829 122.98 447.223 115.644 456.192 110.409Z" fill="#B4B2B1"/>
<path d="M639.235 125.836L639.689 125.619C642.703 130.557 648.27 141.051 650.534 146.296C646.467 141.481 641.973 131.576 639.235 125.836Z" fill="#D2D0CF"/>
<path d="M602.759 196.555C603.405 197.206 604.528 198.228 604.805 199.07C604.74 200.019 612.133 216.635 613.004 218.697C610.04 214.643 603.983 201.267 602.759 196.555Z" fill="#636261"/>
<path d="M433.714 129.809C433.191 131.274 430.288 132.684 428.949 133.665C424.384 137.009 420.454 141.711 416.002 145.05C415.998 145.03 415.988 145.011 415.99 144.991C416.123 143.27 426.409 134.19 428.405 132.827C430.181 131.614 432.047 131.367 433.714 129.809Z" fill="#9C9997"/>
<path d="M431.54 133.315L431.784 134.493C426.479 139.518 425.776 141.911 418.311 146.087C421.656 142.926 428.566 135.638 431.54 133.315Z" fill="#B4B2B1"/>
<path d="M587.824 193.244C589.479 194.559 591.781 212.296 592.371 215.513L591.863 215.318C591.015 212.211 590.77 208.827 589.922 205.689C588.785 201.481 588.219 197.584 587.824 193.244Z" fill="#7F7D7D"/>
<path d="M502.334 217.123C503.811 212.944 506.465 207.487 509.769 204.488L510.25 205.02C510.551 204.948 510.941 204.869 511.226 204.77C510.618 206.011 503.732 215.086 502.334 217.123Z" fill="#B4B2B1" fill-opacity="0.984314"/>
<path d="M568.189 25.3577C568.756 23.8113 569.917 19.8315 571.245 19.125C572.386 20.1117 572.219 26.8597 571.503 28.0492C571.435 26.0056 570.284 24.8723 568.189 25.3577Z" fill="#9C9997"/>
<path d="M605.725 104.013C606.69 105.113 609.086 124.778 609.098 127.071C607.268 124.043 606.008 107.933 605.725 104.013Z" fill="#B4B2B1"/>
<path d="M599.658 19.8877C601.835 22.7204 598.92 31.241 595.555 33.0439C595.329 32.0959 594.872 30.2571 595.306 29.4579C599.683 28.3086 599.378 23.7454 599.658 19.8877Z" fill="#D2D0CF"/>
<path d="M456.728 131.242L457.103 131.982C454.252 134.39 451.443 136.847 448.678 139.352C446.204 141.615 443.448 144.823 440.647 146.306C446.786 140.292 449.52 136.927 456.728 131.242Z" fill="#B4B2B1"/>
<path d="M549.5 187.809C549.377 189.829 546.307 197.148 545.556 199.692C544.684 202.646 543.765 206.352 542.869 209.229C542.777 202.347 546.547 193.891 549.5 187.809Z" fill="#B4B2B1"/>
<path d="M526.836 197.149C526.993 197.309 526.897 197.187 526.997 197.584C525.749 199.106 523.415 201.77 522.383 203.231C519.875 206.783 519.364 207.965 516.277 211.045L516.148 210.834C516.441 209.791 517.279 209.24 517.897 208.231C520.578 203.85 522.55 200.305 526.836 197.149Z" fill="#4B4C4D" fill-opacity="0.988235"/>
<path d="M613.028 204.936C614.986 206.065 620.224 219.093 621.069 221.742C618.884 219.366 614.074 208.188 613.028 204.936Z" fill="#636261"/>
<path d="M549.08 19.4365L549.708 20.5711L549.664 20.7871C548.75 25.5007 549.554 28.8249 554.647 29.7642C554.029 30.6363 552.942 31.165 551.997 31.7433C548.619 27.3395 547.794 24.7932 549.08 19.4365Z" fill="#B4B2B1"/>
<path d="M524.872 202.332C524.785 203.903 517.143 214.906 515.693 216.59L515.587 216.23C516.188 213.87 522.837 203.88 524.872 202.332Z" fill="#4B4C4D"/>
<path d="M682.508 132.644C685.094 133.372 693.484 145.071 694.961 147.779C693.413 146.735 684.247 134.854 682.508 132.644Z" fill="#9C9997"/>
<path d="M377.02 145.271C381.687 140.228 385.595 138.077 391.201 134.244L391.414 135.446C391.074 135.682 390.019 136.366 389.802 136.64C384.253 139.501 381.586 142.674 377.02 145.271Z" fill="#7F7D7D"/>
<path d="M542.579 195.506C542.766 196.928 536.53 212.332 535.51 214.136C535.319 212.61 541.138 197.107 542.579 195.506Z" fill="#7F7D7D"/>
<path d="M729.38 134.313L730.276 134.176C731.642 135.129 733.095 136.026 734.553 136.832C738.376 138.946 741.55 141.917 744.92 144.69C743.369 144.123 730.525 135.399 729.38 134.313Z" fill="#7F7D7D"/>
<path d="M516.679 203.391C516.76 203.476 516.851 203.737 516.906 203.863C515.129 206.387 512.901 208.685 510.975 211.106C509.039 213.54 507.567 215.835 505.365 218.055L505.195 217.866C505.748 215.765 514.494 205.53 516.679 203.391Z" fill="#4B4C4D"/>
<path d="M537.566 197.919C537.824 199.262 529.223 212.313 527.749 214.64C527.784 212.299 535.703 199.891 537.566 197.919Z" fill="#636261"/>
<path d="M721.6 135.887C723.913 136.346 734.17 144.722 736.298 146.681C733.28 145.948 724.148 138.267 721.6 135.887Z" fill="#9C9997"/>
<path d="M597.57 198.685C598.811 200.07 601.7 213.335 602.362 216.101C600.154 213.42 598.077 202.348 597.57 198.685Z" fill="#9C9997"/>
<path d="M677.521 138.441C679.853 139.739 685.7 147.409 686.088 149.989C684.212 149.354 680.599 142.432 678.968 140.697C678.49 140.187 677.701 139.143 677.521 138.441Z" fill="#9C9997"/>
<path d="M488.333 130.229L488.473 130.396C488.431 131.911 481.701 142.598 480.285 144.174C480.218 144.124 480.148 143.869 480.109 143.764C481.265 141.442 486.809 131.996 488.333 130.229Z" fill="#636261"/>
<path d="M616.17 205.999C619.153 207.443 622.363 214.881 623.523 218.113C622.705 217.575 616.591 207.203 616.17 205.999Z" fill="#4B4C4D"/>
<path d="M458.483 132.765L458.619 133.545C456.027 136.99 451.032 142.572 447.685 145.165C449.64 142.253 455.78 135.6 458.483 132.765Z" fill="#7F7D7D"/>
<path d="M655.198 134.284C656.793 135.821 661.826 145.693 662.908 148.098C661.097 147.494 655.876 136.635 655.198 134.284Z" fill="#7F7D7D"/>
<path d="M582.92 47.4014C584.098 50.308 585.465 53.5733 587.521 55.9237C586.823 56.552 586.135 56.6405 585.19 56.7713C583.789 53.484 583.475 50.8959 582.92 47.4014Z" fill="#F3F2F2"/>
<path d="M550.393 194.06C552.163 199.741 551.196 205.164 549.438 210.87C549.022 208.121 550.638 202.191 550.823 199.134C550.951 197.015 549.952 195.838 550.393 194.06Z" fill="#B4B2B1"/>
<path d="M434.68 137.691C433.243 139 427.21 144.911 425.7 145.159C425.371 145.431 425.557 145.297 425.135 145.548C425.872 144.651 432.689 138.131 433.742 137.271L434.68 137.691Z" fill="#7F7D7D"/>
<path d="M572.644 50.7158C573.261 54.647 571.443 58.9334 567.872 60.8487C567.785 60.45 569.855 57.6555 570.311 56.7856C571.515 54.4922 571.973 53.1285 572.644 50.7158Z" fill="#F3F2F2"/>
<path d="M704.714 138.043C706.574 138.87 711.47 145.673 712.448 147.524C710.326 146.647 705.88 140.341 704.714 138.043Z" fill="#B4B2B1"/>
<path d="M549.596 196.22C550.11 196.811 550.144 197.624 549.916 198.34C548.55 202.628 547.275 206.421 546.39 210.85C546.294 210.747 546.197 210.644 546.101 210.542C546.625 204.89 548.401 201.764 549.596 196.22Z" fill="#4B4C4D"/>
<path d="M587.521 55.9248C588.725 56.7647 590.318 58.8394 591.296 60.0439C588.879 58.6488 587.891 57.5806 585.805 56.2006C586.72 57.259 588.124 58.6079 588.29 59.9546C587.361 59.7858 586.602 59.0125 586.075 58.2406C585.751 57.7696 585.455 57.2792 585.19 56.7724C586.136 56.6416 586.823 56.5531 587.521 55.9248Z" fill="#D2D0CF"/>
<path d="M762.499 137.567C764.719 139.33 767.308 143.367 769.127 145.692C764.891 143.488 765.159 141.092 761.764 137.911L762.499 137.567Z" fill="#7F7D7D" fill-opacity="0.980392"/>
<path d="M536.462 112.238C535.597 116.462 534.005 120.816 533.153 125.33C532.837 122.712 534.867 114.822 535.752 112.152L536.462 112.238Z" fill="#7F7D7D"/>
<path d="M586.545 197.881C588.115 199.199 585.766 209.045 585.447 211.4L585.3 211.448C584.907 210.637 586.466 199.938 586.545 197.881Z" fill="#666569"/>
<path d="M574.72 31.5508C575.739 33.3248 574.958 43.5833 574.527 45.9635L574.482 46.0195C574.414 42.5626 574.111 34.6172 574.72 31.5508Z" fill="#9C9997"/>
<path d="M575.587 50.1904C576.037 50.7821 578.221 58.1459 578.944 59.7113C575.898 58.635 575.664 52.8751 575.587 50.1904Z" fill="#F3F2F2"/>
<path d="M718.771 141.395C719.759 142.335 724.432 146.646 724.65 147.731C723.189 147.04 719.83 143.916 718.462 142.696L718.771 141.395Z" fill="#B4B2B1"/>
<path d="M470.388 137.043L470.564 137.433C468.785 140.021 466.956 143.818 465.193 146.714C465.111 146.598 465.029 146.482 464.947 146.366C466.392 143.094 467.663 139.312 470.388 137.043Z" fill="#7F7D7D"/>
<path d="M508.583 83.6371C510.079 82.3914 515.495 80.5365 517.5 79.8965L517.37 80.6135C514.463 81.6888 511.631 83.0396 508.865 84.4379L508.583 83.6371Z" fill="#B4B2B1"/>
<path d="M419.28 137.338L419.548 137.393L419.498 137.681C417.037 139.595 413.907 142.626 411.517 144.046L411.218 143.928C411.724 142.467 417.52 138.217 419.28 137.338Z" fill="#9C9997"/>
<path d="M628.733 133.005C629.73 136.347 630.688 139.7 631.605 143.065C630.519 141.197 628.338 136.545 628.051 134.402C628.531 133.828 628.532 133.701 628.733 133.005Z" fill="#B4B2B1"/>
<path d="M587.606 203.072C588.497 204.818 589.126 213.06 589.115 215.24C587.954 214.23 587.459 204.908 587.606 203.072Z" fill="#7F7D7D"/>
<path d="M535.752 112.154C536.425 109.789 538.232 102.496 539.534 100.904C538.724 104.366 537.542 108.909 536.463 112.239L535.752 112.154Z" fill="#D2D0CF"/>
<path d="M464.339 136.868L464.434 136.912C461.391 140.812 460.469 142.232 456.989 146.1L456.823 145.893C457.46 144.205 462.672 138.006 464.339 136.868Z" fill="#7F7D7D"/>
<path d="M438.921 136.347C438.429 137.983 433.223 142.927 431.739 144.183L431.712 143.69C433.094 141.605 436.808 137.74 438.921 136.347Z" fill="#9C9997"/>
<path d="M456.192 110.408C457.394 109.529 465.047 104.731 466.153 104.627C465.12 106.151 458.295 109.81 456.408 110.863L456.192 110.408Z" fill="#4B4C4D"/>
<path d="M672.136 140.267C674.528 141.81 675.558 146.056 676.057 148.621C674.839 147.369 672.728 142.061 672.136 140.267Z" fill="#9C9997"/>
<path d="M584.939 49.0343C584.076 47.6032 582.362 46.0705 582.51 44.4658L582.98 44.2979C584.068 44.9021 585.101 46.7234 585.636 47.8429L585.759 48.1032L586.141 48.0581C585.69 48.7203 585.683 48.6758 584.939 49.0343Z" fill="#D2D0CF"/>
<path d="M597.05 83.6514C596.643 82.0934 595.59 79.5471 596.953 78.4219L597.551 78.6089L597.928 84.1358L597.05 83.6514Z" fill="#7F7D7D" fill-opacity="0.988235"/>
<path d="M643.528 136.457C644.514 137.087 646.342 145.385 646.732 146.936C645.479 145.818 643.58 138.316 643.528 136.457Z" fill="#B4B2B1"/>
<path d="M381.841 138.277C382.771 137.075 384.626 134.899 385.726 133.932L386.788 134.371C385.182 135.927 383.821 137.221 381.841 138.277Z" fill="#9C9997"/>
<path d="M639.638 87.6601C637.051 85.6848 634.889 84.9167 632.369 83.1836C634.864 84.2204 637.822 85.3784 640.031 86.8898L639.638 87.6601Z" fill="#B4B2B1"/>
<path d="M549.081 19.4365C549.474 17.887 549.998 17.2094 551.108 16.0667L551.42 16.041C551.312 17.136 550.133 18.9225 549.709 20.571L549.081 19.4365Z" fill="#636261" fill-opacity="0.964706"/>
<path d="M639.234 125.836C637.877 124.021 636.274 122.021 635.44 119.933C637.333 121.993 638.202 123.195 639.688 125.619L639.234 125.836Z" fill="#4B4C4D"/>
<path d="M523.148 77.6016C521.334 78.8339 519.455 79.8982 517.371 80.6123L517.501 79.8952C519.301 78.9901 521.257 78.3093 523.148 77.6016Z" fill="#636261"/>
<path d="M527.975 126.4C527.989 127.511 528.012 128.466 528.091 129.578L528.462 129.847C528.489 131.268 528.279 133.071 527.758 134.404C527.705 132.037 527.573 128.667 527.975 126.4Z" fill="#9C9997" fill-opacity="0.984314"/>
<path d="M521.962 212.532C522.664 210.781 523.29 209.13 524.594 207.729L524.935 208.368C524.117 209.835 523.011 211.23 521.962 212.532Z" fill="#252527"/>
<path d="M585.939 18.9951C587.693 19.5063 588.045 21.4792 588.403 23.0252C587.858 22.7603 586.386 19.7997 585.939 18.9951Z" fill="#636261"/>
<path d="M505.564 79.4569C507.299 78.8509 508.346 78.5588 510.14 78.1582C508.47 79.1265 507.689 79.4285 505.862 80.1119L505.564 79.4569Z" fill="#7F7D7D"/>
<path d="M462.086 129.943C460.871 131.393 459.986 132.245 458.619 133.545L458.483 132.765C459.804 131.617 460.653 130.941 462.086 129.943Z" fill="#4B4C4D"/>
<path d="M598.115 181.891C597.469 181.074 596.667 180.248 596.428 179.277C597.208 179.575 597.98 180.683 598.558 181.372L598.115 181.891Z" fill="#636261"/>
<path d="M715.236 143.937L718.063 146.902C716.427 146.031 715.832 145.435 714.431 144.183L715.236 143.937Z" fill="#7F7D7D" fill-opacity="0.984314"/>
<path d="M544.185 177.975C543.192 178.996 542.167 180.087 541.155 181.08L541.276 179.97C542.214 179.111 543.101 178.629 544.185 177.975Z" fill="#7F7D7D"/>
<path d="M566.902 329.873L567.075 330.952C567.41 331.58 567.59 332.221 568.126 332.432C567.972 335.547 567.448 338.515 566.81 341.557L566.774 341.358C566.199 338.016 565.995 333.172 566.902 329.873Z" fill="#D2D0CF" fill-opacity="0.968627"/>
<path d="M567.076 330.951L567.756 331.017C568.313 330.16 568.664 327.033 568.918 325.733C568.907 327.869 568.891 329.786 568.749 331.924L568.126 332.431C567.59 332.221 567.411 331.58 567.076 330.951Z" fill="#252527" fill-opacity="0.827451"/>
</g>
<defs>
<clipPath id="clip0_469_3">
<rect width="400.802" height="497.756" fill="white" transform="translate(372.235)"/>
</clipPath>
</defs>
</svg>
