<svg width="936" height="329" viewBox="0 0 936 329" fill="none" xmlns="http://www.w3.org/2000/svg">
<path d="M0 222.241C0 183.606 0 144.965 0 106.329C26.2045 94.5121 52.7512 83.6377 79.7112 73.6738C79.7112 87.0537 79.7112 100.427 79.7112 113.807C63.1155 117.223 46.5714 120.846 30.0596 124.669C30.0596 132.263 30.0596 139.857 30.0596 147.451C41.8962 146.282 53.7392 145.165 65.5823 144.08V180.687C53.7392 179.809 41.8962 178.899 30.0596 177.956C30.0596 197.102 30.0596 216.255 30.0596 235.402C19.973 231.172 9.95745 226.768 0 222.241Z" fill="#CEFF00"/>
<path d="M89.9468 258.584C89.9468 195.721 89.9468 132.857 89.9468 69.9935C100.188 66.3709 110.482 62.8709 120.826 59.5518C120.826 113.917 120.826 168.283 120.826 222.649C136.144 225.367 151.48 227.918 166.849 230.307C166.849 247.8 166.849 265.294 166.849 282.787C140.942 275.542 115.338 267.483 89.9468 258.591V258.584Z" fill="#CEFF00"/>
<path d="M193.099 289.677C193.099 258.242 193.099 226.807 193.099 195.372C181.63 146.301 169.542 97.3858 156.265 48.7674C167.275 45.6549 178.311 42.678 189.392 39.8302C196.14 69.1472 202.636 98.5159 208.945 127.93C209.074 127.923 209.139 127.917 209.268 127.91C216.384 95.4227 223.287 62.8899 230.029 30.3248C240.916 28.0259 251.823 25.8562 262.762 23.8027C250.654 81.7264 238.114 139.553 224.831 197.219C224.831 230.52 224.831 263.821 224.831 297.122C214.215 294.804 203.644 292.305 193.099 289.677Z" fill="#CEFF00"/>
<path d="M269.781 306.034C269.781 211.535 269.781 117.03 269.781 22.5307C280.397 20.658 291.039 18.908 301.707 17.3389C301.707 115.299 301.707 213.266 301.707 311.226C291.039 309.656 280.403 307.907 269.781 306.034Z" fill="#CEFF00"/>
<path d="M391.104 320.861C378.157 259.947 365.074 199.066 351.675 138.249C351.546 138.249 351.475 138.249 351.345 138.249C351.345 197.987 351.345 257.719 351.345 317.457C341.401 316.398 331.482 315.236 321.563 313.983C321.563 214.176 321.563 114.376 321.563 14.5689C333.51 13.0579 345.463 11.6953 357.448 10.4813C369.446 66.7906 381.173 123.152 392.757 179.551C392.886 179.551 392.957 179.551 393.087 179.551C393.087 122.222 393.087 64.8921 393.087 7.56255C403.057 6.94263 413.021 6.41312 423.004 5.98047C423.004 111.509 423.004 217.037 423.004 322.565C412.362 322.152 401.733 321.564 391.104 320.854V320.861Z" fill="#CEFF00"/>
<path d="M513.332 322.565V296.993C513.203 296.993 513.132 296.999 513.002 297.006C507.778 309.901 500.54 328.609 483.724 328.68C462.486 328.77 453.878 298.627 449.661 282.515C439.303 242.963 438.037 200.738 438.057 160.307C438.076 120.729 439.316 78.4779 452.205 40.3852C457.965 23.3439 469.143 -0.451955 490.182 0.00652646C530.031 0.884745 534.28 67.7714 536.811 95.5838C527.131 100.007 517.497 104.534 507.882 109.106C506.784 98.7867 505.447 67.8812 490.182 68.1976C480.857 68.3913 477.377 83.5664 475.665 91.0829C470.532 113.6 470.357 137.448 470.331 160.301C470.299 185.046 470.151 210.824 475.026 235.337C476.795 244.242 480.696 262 492.003 261.683C508.515 261.225 510.329 232.431 510.529 220.323C510.549 219.019 510.529 217.676 510.529 216.352C504.356 216.429 498.176 216.487 492.003 216.533V158.099C507.326 158.112 522.644 158.138 537.967 158.17V321.318C529.76 321.822 521.552 322.242 513.338 322.571L513.332 322.565Z" fill="#CEFF00"/>
<path d="M594.367 316.417V12.1533C622.554 15.4144 650.566 19.6182 678.469 24.7777V86.5694C661.137 84.7871 643.792 83.1921 626.428 81.7909V129.228C638.878 129.654 651.328 130.119 663.778 130.622V191.613C651.328 192.02 638.878 192.401 626.428 192.75C626.428 232.625 626.428 272.5 626.428 312.368C615.767 313.879 605.073 315.216 594.373 316.417H594.367Z" fill="#CEFF00"/>
<path d="M689.059 301.745V26.8242C699.649 28.9358 710.214 31.1766 720.74 33.5917V294.971C710.214 297.387 699.649 299.627 689.059 301.739V301.745Z" fill="#CEFF00"/>
<path d="M798.288 120.451C795.789 110.229 791.908 94.5245 780.375 92.3161C771.199 90.5596 768.9 102.713 768.506 109.08C767.395 126.799 784.036 134.012 797.649 142.917C819.036 156.91 826.604 179.085 826.597 203.947C826.597 235.065 813.489 273.165 780.853 283.329C746.712 293.964 738.433 250.318 734.656 226.038C744.168 218.566 753.776 211.237 763.521 204.069C764.257 214.156 767.931 237.545 782.938 234.51C793.141 232.444 797.849 221.873 797.81 212.161C797.732 193.686 781.02 189.818 767.867 181.746C741.63 165.654 737.568 133.328 737.736 105.709C737.865 83.9859 745.472 34.6249 779.58 44.8535C807.27 53.1578 818.009 81.913 823.911 107.517C815.206 111.559 806.721 115.86 798.294 120.451H798.288Z" fill="#CEFF00"/>
<path d="M905.94 235.401C905.94 216.778 905.94 198.161 905.94 179.538C894.679 180.545 883.41 181.514 872.142 182.45C872.142 204.625 872.142 226.8 872.142 248.969C861.926 252.888 851.646 256.634 841.32 260.25C841.32 196.275 841.32 132.301 841.32 68.3203C851.646 71.9365 861.926 75.6819 872.142 79.6015C872.142 100.44 872.142 121.278 872.142 142.11C883.417 143.253 894.679 144.435 905.94 145.662C905.94 128.162 905.94 110.662 905.94 93.1687C916.021 97.4178 926.049 101.783 936 106.329C936 144.964 936 183.606 936 222.241C926.049 226.787 916.021 231.152 905.94 235.401Z" fill="#CEFF00"/>
</svg>
